Coordinates
version=1
nRows=24
nColumns=24
inDegrees=yes

Units are S.I. units (second, meters, Newtons, ...)
Angles are in degrees.

endheader
time	pelvis_tilt	pelvis_list	pelvis_rotation	pelvis_tx	pelvis_ty	pelvis_tz	hip_flexion_r	hip_adduction_r	hip_rotation_r	knee_angle_r	ankle_angle_r	subtalar_angle_r	mtp_angle_r	hip_flexion_l	hip_adduction_l	hip_rotation_l	knee_angle_l	ankle_angle_l	subtalar_angle_l	mtp_angle_l	lumbar_extension	lumbar_bending	lumbar_rotation
      5.70000000	     12.59325725	     -4.84058105	     -3.26468791	      1.65148125	      0.72739918	     -0.27040492	    -28.85292775	      5.48913370	     -3.50848879	    -16.03296689	     34.08632636	     28.28055738	      0.00000000	     15.91391825	     -1.07552552	      0.00825492	     -9.63191822	     18.05985276	      7.80412001	      0.00000000	    -33.33478051	      6.07728232	     14.97735324
      5.70500000	     12.58420862	     -4.48886966	     -3.33552031	      1.65924003	      0.72703774	     -0.27046848	    -28.82874271	      4.95177799	     -3.67187401	    -17.27600468	     33.59856330	     28.68295639	      0.00000000	     16.09649437	     -0.61041090	     -0.10032439	    -10.83558918	     17.37011615	      6.87075299	      0.00000000	    -33.19435781	      5.66027473	     14.88944466
      5.71000000	     12.58237432	     -4.12252135	     -3.35018085	      1.66701905	      0.72674213	     -0.27061352	    -28.75993796	      4.40969313	     -3.97078669	    -18.60497823	     32.97265527	     29.12378867	      0.00000000	     16.27960020	     -0.10782028	     -0.02740273	    -12.11796408	     16.61130619	      5.77989156	      0.00000000	    -33.05448530	      5.25120206	     14.81897432
      5.71500000	     12.58335613	     -3.71425728	     -3.35355175	      1.67482413	      0.72654586	     -0.27074233	    -28.63756027	      3.84341636	     -4.19703520	    -20.02246598	     32.18803199	     29.46402525	      0.00000000	     16.43991736	      0.43174210	      0.01770827	    -13.40972785	     15.78617171	      4.74063621	      0.00000000	    -32.91001312	      4.80603480	     14.64931947
      5.72000000	     12.59789195	     -3.29483815	     -3.29409997	      1.68262138	      0.72642550	     -0.27094182	    -28.47111589	      3.27890167	     -4.55720092	    -21.52818304	     31.24944982	     29.83382324	      0.00000000	     16.58520156	      1.01015886	      0.23699075	    -14.73646990	     14.94196700	      3.59744711	      0.00000000	    -32.77775342	      4.36589029	     14.50617597
      5.72500000	     12.61962783	     -2.84241757	     -3.21902145	      1.69042362	      0.72640675	     -0.27116029	    -28.24836497	      2.68811370	     -4.90177354	    -23.12885133	     30.12567228	     30.14210461	      0.00000000	     16.69022922	      1.62774252	      0.48024046	    -16.02587564	     14.10661102	      2.52848806	      0.00000000	    -32.65356300	      3.90135795	     14.30211134
      5.73000000	     12.65087452	     -2.36824379	     -3.12370747	      1.69821062	      0.72648571	     -0.27141695	    -27.96832352	      2.07543086	     -5.27202431	    -24.82199747	     28.82978696	     30.41373128	      0.00000000	     16.75500667	      2.28113005	      0.79487708	    -17.27986730	     13.32142648	      1.50606627	      0.00000000	    -32.54249221	      3.42639950	     14.07230169
      5.73500000	     12.68633220	     -1.86747005	     -3.01585604	      1.70597059	      0.72666543	     -0.27167540	    -27.62057839	      1.44079832	     -5.62597646	    -26.61234874	     27.33997653	     30.60800874	      0.00000000	     16.77427675	      2.96555349	      1.12549322	    -18.46388225	     12.60444972	      0.59475093	      0.00000000	    -32.44195334	      2.92455875	     13.80447820
      5.74000000	     12.73345420	     -1.34642490	     -2.90082782	      1.71372051	      0.72694014	     -0.27199569	    -27.22342694	      0.76738563	     -6.03374959	    -28.46968011	     25.67669673	     30.73428430	      0.00000000	     16.74796881	      3.68742656	      1.51004023	    -19.60876240	     12.01011809	     -0.25332098	      0.00000000	    -32.35663751	      2.41358827	     13.57067184
      5.74500000	     12.78540661	     -0.80737658	     -2.79051867	      1.72142382	      0.72731707	     -0.27231350	    -26.75562168	      0.07046229	     -6.40181389	    -30.40943008	     23.84353537	     30.73972467	      0.00000000	     16.66598125	      4.42662603	      1.87960810	    -20.66332904	     11.54025555	     -0.95496089	      0.00000000	    -32.28709502	      1.88346988	     13.31036462
      5.75000000	     12.83986456	     -0.25221649	     -2.68668673	      1.72908647	      0.72778053	     -0.27263725	    -26.22049720	     -0.65339816	     -6.74721183	    -32.41280301	     21.86206509	     30.62365825	      0.00000000	     16.53208555	      5.18498313	      2.24909084	    -21.63341323	     11.22761927	     -1.55137440	      0.00000000	    -32.22807495	      1.33554580	     13.05223079
      5.75500000	     12.89329819	      0.31320866	     -2.59631457	      1.73669482	      0.72832764	     -0.27295576	    -25.61253685	     -1.39748257	     -7.04870310	    -34.46976527	     19.77355705	     30.35086214	      0.00000000	     16.34616277	      5.94955065	      2.59006138	    -22.50858719	     11.06948445	     -2.02337797	      0.00000000	    -32.17800514	      0.77472409	     12.79102361
      5.76000000	     12.98973469	      0.85275499	     -2.53306890	      1.74426257	      0.72900051	     -0.27319894	    -25.00291325	     -2.11333202	     -7.23987079	    -36.51113726	     17.55698123	     29.86998769	      0.00000000	     16.07278646	      6.65569778	      2.80182924	    -23.32536025	     11.19699713	     -2.13512685	      0.00000000	    -32.18424453	      0.21865056	     12.57758543
      5.76500000	     12.98510739	      1.45062946	     -2.46544020	      1.75171599	      0.72962504	     -0.27353955	    -24.18081496	     -2.91346481	     -7.48833747	    -38.67200664	     15.47174402	     29.26129400	      0.00000000	     15.84112037	      7.45688173	      3.14036011	    -23.98564224	     11.21122580	     -2.60135156	      0.00000000	    -32.09336002	     -0.36831596	     12.29745731
      5.77000000	     13.06587497	      2.01042705	     -2.41102208	      1.75914483	      0.73040675	     -0.27379736	    -23.43209881	     -3.66479158	     -7.63081925	    -40.74137894	     13.30826025	     28.54279011	      0.00000000	     15.47503834	      8.17871276	      3.32291585	    -24.59150384	     11.54744976	     -2.61308826	      0.00000000	    -32.10176120	     -0.93417498	     12.04466087
      5.77500000	     13.08369154	      2.58549191	     -2.37568142	      1.76644252	      0.73116777	     -0.27404585	    -22.53230392	     -4.43410914	     -7.73261467	    -42.86241538	     11.36878774	     27.51625765	      0.00000000	     15.13427545	      8.90928556	      3.47464623	    -25.09357785	     11.86286306	     -2.70962153	      0.00000000	    -32.06039996	     -1.51756831	     11.80314651
      5.78000000	     13.06785991	      3.12519364	     -2.36270895	      1.77367334	      0.73194581	     -0.27424639	    -21.54345305	     -5.15904659	     -7.73746959	    -44.95820230	      9.60950680	     26.30726646	      0.00000000	     14.77119506	      9.58132878	      3.57012784	    -25.48425572	     12.33676051	     -2.72946835	      0.00000000	    -31.98772546	     -2.07025791	     11.56744093
      5.78500000	     13.05010937	      3.64517180	     -2.34768765	      1.78082207	      0.73276496	     -0.27440478	    -20.51755162	     -5.84226870	     -7.67376201	    -46.99318202	      8.05657913	     24.97701911	      0.00000000	     14.37282584	     10.21032851	      3.60075604	    -25.80373243	     12.89557640	     -2.60275329	      0.00000000	    -31.92344213	     -2.60441297	     11.32696691
      5.79000000	     13.02434267	      4.14206085	     -2.32940763	      1.78789079	      0.73361413	     -0.27453635	    -19.44861932	     -6.48514284	     -7.56593585	    -48.97183760	      6.76916837	     23.52037789	      0.00000000	     13.94042325	     10.79550274	      3.57329958	    -26.03860923	     13.51490825	     -2.38237033	      0.00000000	    -31.86009564	     -3.11284072	     11.07653598
      5.79500000	     12.98684611	      4.60923209	     -2.30528288	      1.79487826	      0.73448740	     -0.27463937	    -18.33644483	     -7.07717606	     -7.41411575	    -50.88512736	      5.77147494	     21.95542709	      0.00000000	     13.47963450	     11.32955313	      3.49659164	    -26.19225391	     14.17595475	     -2.08481517	      0.00000000	    -31.79335810	     -3.58692659	     10.81628173
      5.80000000	     12.93934426	      5.04544478	     -2.26830002	      1.80179207	      0.73538356	     -0.27472113	    -17.19005031	     -7.61587428	     -7.23381639	    -52.72288368	      5.06448482	     20.30991450	      0.00000000	     12.99010758	     11.81372940	      3.38364153	    -26.26973846	     14.85818943	     -1.71565535	      0.00000000	    -31.72433001	     -4.02206536	     10.54008936
      5.80500000	     12.88621971	      5.45261008	     -2.21413984	      1.80864092	      0.73630563	     -0.27479166	    -16.02063090	     -8.10582539	     -7.04177205	    -54.47606837	      4.63999004	     18.60260197	      0.00000000	     12.46789165	     12.25293096	      3.24728975	    -26.27389968	     15.54467929	     -1.28820142	      0.00000000	    -31.65647388	     -4.41777870	     10.24254630
      5.81000000	     12.82802168	      5.82937903	     -2.13831577	      1.81543163	      0.73724543	     -0.27485849	    -14.83427676	     -8.54928823	     -6.85626560	    -56.13927126	      4.48719133	     16.84736372	      0.00000000	     11.91530961	     12.64859284	      3.10349759	    -26.21213350	     16.22963590	     -0.80940885	      0.00000000	    -31.58962648	     -4.77282241	      9.93228097
      5.81500000	     12.77458516	      6.18269609	     -2.03722045	      1.82216842	      0.73821047	     -0.27494529	    -13.64821144	     -8.95810408	     -6.69126607	    -57.70319535	      4.60404175	     15.06197789	      0.00000000	     11.32611514	     13.01491692	      2.97039199	    -26.09538682	     16.89284409	     -0.30290971	      0.00000000	    -31.53496463	     -5.08558764	      9.60098172
